<svg width="200" height="200" viewBox="0 0 200 200" fill="none" xmlns="http://www.w3.org/2000/svg">
<circle cx="100" cy="100" r="100" fill="#B96BD2"/>
<mask id="mask0_38_103" style="mask-type:alpha" maskUnits="userSpaceOnUse" x="0" y="0" width="200" height="200">
<circle cx="100" cy="100" r="100" fill="#D9D9D9"/>
</mask>
<g mask="url(#mask0_38_103)">
<path d="M57 141.952C80.3333 143.119 131.6 143.752 150 136.952C150.62 125.167 150.594 101.176 147.242 79.452C122.161 82.2854 67.6637 86.752 50.3184 81.952C50.985 102.851 52.8256 129.727 57 141.952Z" fill="url(#paint0_linear_38_103)"/>
<path d="M142.5 58.452C120.833 56.6187 72 55.052 50 63.452C50 68.3739 50.0907 74.8144 50.3184 81.952C67.6637 86.752 122.161 82.2854 147.242 79.452C146.09 71.9889 144.546 64.7933 142.5 58.452Z" fill="#79428B"/>
<path d="M76 99.5C76 103.642 72.4183 107 68 107C63.5817 107 60 103.642 60 99.5C60 95.3579 63.5817 92 68 92C72.4183 92 76 95.3579 76 99.5Z" fill="#ECC2FB"/>
<path d="M103 99.5C103 103.642 99.4183 107 95 107C90.5817 107 87 103.642 87 99.5C87 95.3579 90.5817 92 95 92C99.4183 92 103 95.3579 103 99.5Z" fill="#ECC2FB"/>
<path d="M128 99.5C128 103.642 124.418 107 120 107C115.582 107 112 103.642 112 99.5C112 95.3579 115.582 92 120 92C124.418 92 128 95.3579 128 99.5Z" fill="#ECC2FB"/>
<path d="M80 122.5C80 126.642 76.4183 130 72 130C67.5817 130 64 126.642 64 122.5C64 118.358 67.5817 115 72 115C76.4183 115 80 118.358 80 122.5Z" fill="#ECC2FB"/>
<path d="M106 122.5C106 126.642 102.418 130 98 130C93.5817 130 90 126.642 90 122.5C90 118.358 93.5817 115 98 115C102.418 115 106 118.358 106 122.5Z" fill="#ECC2FB"/>
<path d="M131 122.5C131 126.642 127.418 130 123 130C118.582 130 115 126.642 115 122.5C115 118.358 118.582 115 123 115C127.418 115 131 118.358 131 122.5Z" fill="#ECC2FB"/>
</g>
<defs>
<linearGradient id="paint0_linear_38_103" x1="100.156" y1="57" x2="100.156" y2="142.686" gradientUnits="userSpaceOnUse">
<stop stop-color="#996FA8"/>
<stop offset="1" stop-color="#A949C9"/>
</linearGradient>
</defs>
</svg>
