<svg width="200" height="200" viewBox="0 0 200 200" fill="none" xmlns="http://www.w3.org/2000/svg">
<circle cx="100" cy="100" r="100" fill="#D26B77"/>
<mask id="mask0_38_68" style="mask-type:alpha" maskUnits="userSpaceOnUse" x="0" y="0" width="200" height="200">
<circle cx="100" cy="100" r="100" fill="#D9D9D9"/>
</mask>
<g mask="url(#mask0_38_68)">
<path d="M138.515 35.5651C135.037 35.3049 131.633 35.749 127.81 37.753C121.569 41.0255 117.642 45.0777 115.931 46.2921C114.437 47.3517 112.988 47.7003 111.912 47.7257C110.042 47.7699 108.514 47.0883 107.869 46.265C107.58 45.897 107.412 45.5956 107.336 45.2363C106.925 43.3042 109.536 40.4695 110.337 38.4406C110.531 37.9496 110.458 37.2903 110.329 36.782C110.2 36.2738 109.894 35.9015 109.271 35.6749C106.006 34.4869 102.797 36.1329 100.576 36.9239C99.5181 37.3009 96.45 38.1948 92.3284 39.6852C87.365 41.48 82.3272 43.7785 79.376 45.3544C76.6368 46.817 74.0332 48.1679 71.5913 49.8475C67.775 52.4724 64.1653 54.7665 62.2171 56.4883C59.8557 58.5754 59.5781 62.7384 59.7646 65.1693C59.864 66.4658 60.9202 67.3065 61.6461 67.924C65.0676 70.8348 70.6223 71.0665 71.0601 71.9779C71.2987 72.4747 71.1398 73.212 70.9926 73.8404C70.7112 75.042 67.406 77.5126 62.0326 81.3709C57.4706 84.6465 55.4928 87.6467 54.2322 89.24C52.4408 91.504 50.7622 93.1517 50.2426 94.2404C49.2403 96.3405 49.7639 99.2196 50.2816 99.9285C50.858 100.718 53.9627 100.527 57.8749 100.469C60.5435 100.43 63.2788 99.5995 66.0465 100.016C67.0483 100.167 67.1227 100.726 67.1465 101.328C67.2511 103.975 64.8603 105.918 62.3985 108.622C59.0321 112.319 56.1515 115.853 54.2687 119.013C51.2918 124.01 49.707 128.01 48.859 129.458C46.4905 133.503 46.0521 138.101 45.356 142.848C45.1403 144.319 45.5096 145.272 45.9837 146.118C46.9935 147.918 53.4687 148.201 57.9155 148.884C59.0433 149.057 59.489 150.481 59.7657 151.733C60.4463 154.812 59.0343 158.48 57.4876 162.884C56.0672 166.928 57.1734 173.239 58.3151 174.71C59.4903 176.225 63.1113 174.97 66.0414 173.676C70.2781 171.804 72.4648 168.971 77.9014 164.984C81.0057 162.707 86.7135 159.378 90.9449 157.014C95.1764 154.651 97.8653 153.525 100.605 152.697C105.98 151.071 110.504 150.985 113.167 151.883C117.164 153.231 114.894 159.194 115.754 161.677C115.909 162.124 116.342 162.356 116.967 162.547C118.478 163.008 120.247 162.447 122.365 161.061C125.756 158.842 128.157 156.826 130.938 154.583C133.228 152.736 137.033 149.095 139.361 146.835C141.688 144.575 142.354 143.716 145.248 141.299C148.143 138.881 153.247 134.931 156.68 131.978C161.938 127.454 164.23 123.683 165.651 120.899C167.187 117.893 167.046 115.907 166.819 114.904C166.607 113.963 165.075 113.498 162.172 112.858C156.691 111.648 152.707 111.936 151.89 111.629C150.717 111.189 149.731 110.235 149.043 109.093C147.528 106.581 148.121 101.952 149.058 98.3701C149.637 96.1613 152.551 93.9413 155.214 91.2174C158.911 87.4347 158.82 84.2382 159.26 82.4386C159.724 80.5404 159.353 78.9804 158.853 78.4845C156.661 76.3118 148.021 78.6113 144.269 79.1543C141.829 79.5073 139.626 79.474 137.34 79.3443C136.774 79.3122 136.374 78.7479 136.127 78.3748C135.701 77.7293 135.877 76.244 136.154 74.3273C136.388 72.7066 139.3 69.8789 143.192 66.0465C147.194 62.1051 150.013 57.4932 151.64 53.9539C152.702 51.6427 153.963 49.9289 154.635 48.2111C155.267 46.596 155.646 45.532 155.807 44.7341C156.72 40.2034 142.53 42.3615 141.933 41.7886C141.405 41.2816 141.286 39.1093 141.276 36.1093C141.273 35.0415 139.184 35.6511 138.515 35.5651Z" fill="url(#paint0_linear_38_68)"/>
<path fill-rule="evenodd" clip-rule="evenodd" d="M102.32 103C107.987 93.1667 115.92 65.6 102.32 34C114.487 54.3333 135.321 94.7 137.321 107.5C139.821 123.5 129.321 146 121.321 153C113.321 160 95.3205 162.5 77.8205 156.5C60.3205 150.5 59.3205 131 65.3205 116.5C67.6667 110.83 72.3066 106.154 77.0876 101.335C84.533 93.832 92.3205 85.9837 92.3205 73.5C96.1538 76.5 103.52 86.6 102.32 103ZM97.2945 125.721C103.46 121.987 111.126 117.344 112.821 106.5C114.487 114.333 114.621 130.1 111.821 134.5C108.321 140 102.32 147.5 94.3206 147C86.3206 146.5 85.8206 137 90.3206 131C91.7706 129.067 94.363 127.497 97.2945 125.721Z" fill="#521D23"/>
</g>
<defs>
<linearGradient id="paint0_linear_38_68" x1="113.346" y1="33.4499" x2="102.49" y2="178.584" gradientUnits="userSpaceOnUse">
<stop stop-color="#E07C87"/>
<stop offset="1" stop-color="#D26B77"/>
</linearGradient>
</defs>
</svg>
