<svg width="200" height="200" viewBox="0 0 200 200" fill="none" xmlns="http://www.w3.org/2000/svg">
<circle cx="100" cy="100" r="100" fill="#D2A16B"/>
<mask id="mask0_38_59" style="mask-type:alpha" maskUnits="userSpaceOnUse" x="0" y="0" width="200" height="200">
<circle cx="100" cy="100" r="100" fill="#D9D9D9"/>
</mask>
<g mask="url(#mask0_38_59)">
<path d="M103.427 38.7735C102.906 38.4898 101.46 37.7415 95.961 34.6975C93.7138 33.4535 91.5643 32.8409 89.3478 32.384C87.4907 32.0013 84.2049 31.7889 80.6449 31.836C78.4917 31.8644 76.1698 32.9678 73.5585 34.463C71.3545 35.725 70.6934 37.1542 69.459 39.122C69.0126 39.8336 68.6479 40.5738 68.3871 41.687C68.0968 42.9259 68.0764 46.5833 68.194 51.6614C68.3071 56.5473 69.2167 59.1369 69.0043 61.0527C68.9191 61.8212 67.7984 62.9029 65.7886 64.4901C62.9442 66.7364 60.2879 67.2333 59.412 67.4934C58.2795 67.8298 55.8834 68.5604 52.8458 69.2253C49.2563 70.0111 46.2761 70.794 44.6112 71.342C42.6373 71.9918 41.193 72.9321 38.9822 75.0652C37.4868 76.5081 36.3894 77.3024 35.1543 79.1996C33.9105 81.1101 33.8664 83.7538 34.5991 87.0829C35.149 89.5819 36.4721 91.8302 37.8511 93.952C39.1163 95.8985 42.2065 98.39 45.6974 100.503C48.0002 101.897 49.3493 103.054 50.8944 104.196C52.1844 105.149 53.2463 106.284 54.2456 107.898C55.3018 109.603 55.6268 111.417 55.7693 113.212C56.229 119.002 54.9682 121.008 54.3232 123.127C54.0169 124.133 53.3504 125.054 52.4752 126.472C51.0611 128.764 49.9308 131.931 49.1476 134.826C48.5997 136.85 48.5482 138.262 48.4776 139.517C48.3931 141.02 48.1206 143.854 48.2852 147.177C48.3784 149.059 49.6828 150.939 50.8673 153.595C51.9319 155.982 54.0004 158.257 56.0173 160.465C57.2694 161.835 59.6479 163.437 63.133 165.62C66.068 167.458 68.1191 168.01 69.6315 168.176C74.5097 168.712 76.4321 168.629 78.3315 168.298C80.5263 167.916 83.4053 166.548 85.6018 165.473C88.6413 163.986 91.0198 161.841 92.4688 160.532C93.9066 159.234 95.4358 158.229 97.9295 156.732C99.7924 155.614 102.038 154.335 104.273 153.144C106.736 151.832 109.918 150.535 113.933 149.508L113.974 149.498C115.27 149.166 116.988 148.727 122.157 148.464C127.381 148.198 136.083 148.151 141.271 148.056C146.46 147.962 147.871 147.821 149.021 147.607C151.044 147.231 153.725 145.879 156.905 144.077C159.24 142.754 160.249 140.936 161.102 139.466C161.967 137.974 163.429 135.907 164.593 133.32C165.336 131.668 165.62 129.257 165.905 125.75C166.19 122.253 165.532 119.274 164.678 117.257C163.729 115.015 162.824 113.756 161.449 111.765C158.63 107.683 157.074 106.677 156.147 105.606C154.933 104.203 153.519 102.173 151.753 100.262C150.802 99.2322 148.866 96.1008 147.545 93.7282C147.267 93.2286 147.094 92.3277 146.738 89.943C146.045 85.3033 146.758 81.6842 146.972 80.6643C147.31 79.0495 147.329 77.502 147.85 75.6995C148.373 73.8856 148.373 72.61 148.635 71.1831C148.864 69.9392 149.18 68.6188 149.49 65.428C149.694 63.3378 149.656 59.5189 149.563 57.2504C149.384 52.8657 146.289 51.5566 145.385 50.8923C144.101 49.9481 142.443 49.7976 140.731 49.3707C140.07 49.206 139.304 48.9908 138.45 48.6822C137.805 48.4489 134.672 48.4193 129.972 48.2069C125.973 48.0261 124.814 47.326 121.921 46.5455C119.894 45.9989 117.638 45.3332 116.166 45.0225C114.891 44.7532 113.98 44.2385 112.461 43.5279C110.189 42.4654 108.182 41.7697 107.042 41.1753C106.52 40.8204 105.854 40.3913 104.954 39.8468C104.477 39.5375 103.96 39.1612 103.427 38.7735Z" fill="url(#paint0_radial_38_59)"/>
<path fill-rule="evenodd" clip-rule="evenodd" d="M39.5 89.5C49.5 85.3333 74 76.7 92 75.5C91.1667 68 90.4 52.7 94 51.5C100.5 50 117 51.4 119 53C121 55 122.1 58.7 120.5 73.5C125 72.6667 147.5 73.5 159 82L147.5 130.5C128.333 134 82.4 141.4 52 143L39.5 89.5ZM108 91C92 93 88.5 104.5 88.5 110.5C88.5 116.5 97 125 108 122C119 119 125.5 112.5 125.5 105C125.5 99 116 90 108 91ZM51 101.5C50 99.5 50 96 53.5 94C58.1667 92.1667 67.9 88.4 69.5 88C71.5 87.5 73.5 89 74 90.5C74.5 92 73.5 96 71.5 97C70.3284 97.5858 65.7254 99.5441 61.9121 101.167C59.2157 102.314 56.9142 103.293 56.5 103.5C55.5 104 52 103.5 51 101.5Z" fill="#70471D"/>
</g>
<defs>
<radialGradient id="paint0_radial_38_59" cx="0" cy="0" r="1" gradientUnits="userSpaceOnUse" gradientTransform="translate(100.045 100.196) rotate(90.0378) scale(68.8042 66.3494)">
<stop stop-color="#A88822"/>
<stop offset="1" stop-color="#D2A16B"/>
</radialGradient>
</defs>
</svg>
