<svg width="200" height="200" viewBox="0 0 200 200" fill="none" xmlns="http://www.w3.org/2000/svg">
<circle cx="100" cy="100" r="100" fill="#98D26B"/>
<mask id="mask0_38_95" style="mask-type:alpha" maskUnits="userSpaceOnUse" x="0" y="0" width="200" height="200">
<circle cx="100" cy="100" r="100" fill="#D9D9D9"/>
</mask>
<g mask="url(#mask0_38_95)">
<path d="M70.5101 110.037C68.4079 110.104 64.7739 109.935 60.6127 108.802C49.6293 105.814 44.2595 97.6516 42.174 93.2822C39.3629 87.3926 42.1663 80.5151 45.7309 73.584C50.3722 64.5592 63.452 60.8163 68.9841 59.4769C73.3206 58.427 78.1448 61.9031 83.7315 67.0127C85.259 68.4098 86.2157 70.4816 86.7479 70.7999C90.5722 73.0872 91.6247 60.3788 97.7924 55.5842C99.6986 54.1023 102.297 52.9996 107.61 51.4375C120.862 47.5414 130.64 46.2407 132.986 46.4888C134.922 46.6934 136.415 48.1166 138.06 49.1055C139.899 50.2112 140.921 52.7768 142.065 55.7915C143.605 59.8524 142.827 63.3096 141.635 65.4749C137.085 73.7432 128.442 80.7635 122.424 84.0577C120.017 85.3754 119.022 86.1567 122.428 85.7303C142.756 83.1855 145.798 82.403 148.792 83.8503C155.32 87.0061 158.05 99.8061 158.022 107.306C158.003 112.441 151.328 116.812 143.279 120.654C133.606 125.271 124.534 127.108 118.844 128.142C108.908 129.948 96.7053 124.591 93.1238 122.363C89.5131 120.117 96.9604 136.297 97.2562 142.201C97.5172 147.413 88.7287 151.739 77.0047 157.207C68.9637 160.957 62.1168 160.408 59.4123 159.7C54.6607 158.456 52.1302 149.558 48.9632 133.805C48.0357 129.192 49.3942 126.015 51.3275 122.364C53.5338 118.197 47.5945 122.887 54.8759 118.209C59.4472 115.537 65.7976 112.259 69.5682 110.468C69.944 110.289 70.2544 110.148 70.5101 110.037Z" fill="url(#paint0_linear_38_95)"/>
<path d="M115.524 63.7172C120.295 62.4214 134.071 60.6072 151 63.7172C151 79.9149 149.88 117.105 145.398 136.283C123.615 137.579 73.9477 139.393 49.5498 136.283C49.1349 133.043 48.554 125.139 49.5498 119.437C56.8111 118.573 73.0763 117.105 80.0471 118.141C79.6322 113.174 79.0513 101.555 80.0471 94.8168C84.6114 93.7369 98.0966 91.8364 115.524 92.873C114.279 90.9293 112.536 82.3769 115.524 63.7172Z" fill="#488B15"/>
</g>
<defs>
<linearGradient id="paint0_linear_38_95" x1="90.3497" y1="54.3428" x2="110.225" y2="151.327" gradientUnits="userSpaceOnUse">
<stop stop-color="#74B642"/>
<stop offset="1" stop-color="#98D26B"/>
</linearGradient>
</defs>
</svg>
