<svg width="200" height="200" viewBox="0 0 200 200" fill="none" xmlns="http://www.w3.org/2000/svg">
<circle cx="100" cy="100" r="100" fill="#6B7ED2"/>
<mask id="mask0_38_47" style="mask-type:alpha" maskUnits="userSpaceOnUse" x="0" y="0" width="200" height="200">
<circle cx="100" cy="100" r="100" fill="#D9D9D9"/>
</mask>
<g mask="url(#mask0_38_47)">
<path d="M90.5765 97.6522C89.0194 100.693 84.0328 105.167 74.3586 106.998C73.8447 108.114 73.3783 109.129 72.6353 110.078C70.5878 112.692 69.1798 113.972 67.0716 119.162C65.6285 122.715 63.0324 129.053 61.8287 132.5C59.8834 138.072 58.7318 141.563 58.2149 143.312C57.739 144.922 57.1653 148.756 56.3022 154.035C55.8905 156.554 55.5053 158.772 54.8825 160.781C53.6832 164.652 52.8805 166.946 52.1388 168.199C50.8521 170.372 49.2838 173.54 46.6698 175.494C41.5212 179.341 38.3054 180.385 37.8194 180.382C38.0673 180.624 38.6004 181.046 38.8457 181.139C39.091 181.231 39.3325 181.351 39.5019 181.595C39.9579 182.856 40.0548 184.549 40.6224 185.822C41.2521 187.235 42.3917 188.855 43.0402 190.178C43.7186 191.561 46.2928 194.145 48.7519 196.412C50.2891 197.829 53.0905 200.623 54.896 203.278C56.3512 205.419 57.957 207.52 59.6822 209.149C61.2126 210.594 64.4554 213.014 68.7856 215.229C70.7405 216.229 72.287 216.832 73.8832 217.261C75.4794 217.691 77.0768 217.939 81.6954 217.998C86.314 218.057 80.1991 218.9 86.7581 218.033C86.1721 218.123 87.3626 217.953 86.7581 218.033L86.9631 217.361C89.6335 189.196 94.0947 125.823 90.5765 97.6522Z" fill="url(#paint0_linear_38_47)"/>
<path d="M113 96.0945C119.266 135.613 126.67 177.194 133.522 204.21C135.447 203.193 139.614 202.24 141.08 201.476C145.694 199.071 146.909 198.546 148.999 196.921C151.089 195.295 153.966 192.649 156.336 190.264C158.706 187.879 160.577 185.889 162.199 183.603C165.403 179.087 167.211 176.334 167.298 175.377C167.377 174.512 166.354 173.789 166.356 173.552C166.157 173.367 165.965 173.188 165.719 172.976C164.648 172.039 163.386 170.594 162.121 169.54C161.051 168.542 159.608 167.789 157.925 163.788C156.89 161.325 155.758 159.417 155.203 158.03C154.963 157.432 153.127 153.529 149.749 147.853C148.321 145.452 147.363 144.012 146.56 143.213C145.326 141.985 144.164 140.766 140.459 137.965C137.539 135.759 132.573 132.169 129.496 129.577C126.419 126.985 125.226 125.476 124.271 123.927C122.462 120.99 121.184 118.752 120.151 114.493C119.331 111.112 118.062 105.357 117.109 101.622C116.48 99.1578 113.635 97.5954 113 96.0945Z" fill="url(#paint1_linear_38_47)"/>
<path d="M101.5 26C101.1 70 64.3333 99.6667 46 109C56.4735 110.518 64.7341 110.356 71.0989 109.333C81.5068 107.661 86.8453 103.689 88.5 101C92.5 125.8 88.1667 181.667 85.5 206.5L101.774 205.919C107.986 205.097 113.176 203.869 116.268 203.156C119.674 202.371 120.509 202.214 125.337 200.173C128.631 198.78 133.663 196.563 138.101 194.613C130.519 170.851 122.233 134.259 115.188 99.4764C109.451 71.147 104.538 44.0182 101.5 26Z" fill="#2B44B4"/>
</g>
<defs>
<linearGradient id="paint0_linear_38_47" x1="103.704" y1="12.624" x2="102.282" y2="218.143" gradientUnits="userSpaceOnUse">
<stop stop-color="#233CA7" stop-opacity="0.29"/>
<stop offset="1" stop-color="#6B7ED2"/>
</linearGradient>
<linearGradient id="paint1_linear_38_47" x1="103.704" y1="12.624" x2="102.282" y2="218.143" gradientUnits="userSpaceOnUse">
<stop stop-color="#233CA7" stop-opacity="0.29"/>
<stop offset="1" stop-color="#6B7ED2"/>
</linearGradient>
</defs>
</svg>
